#!OML:ASF C:\Vicon Data\Big\jianyuan-13\jianyuan\Session 1\Capture.male.ASF
:FULLY-SPECIFIED
:DEGREES
167
root -6.278013 17.560749 -12.641446 9.091737 6.850885 3.777328
lowerback -12.193676 0.325633 -5.439065 
upperback 1.775146 1.422384 -1.811613 
thorax 8.690595 0.468957 1.408234 
lowerneck -6.464946 -2.442831 2.256794 
upperneck -0.366910 -3.382489 -2.386328 
head 0.889058 -1.728035 -1.208686 
rclavicle 0.000000 0.000000 
rhumerus -39.721885 -14.826508 -82.963645 
rradius 29.798741 
rwrist 28.889448 
rhand -17.095883 -16.627384 
rfingers 0.000000 
rthumb 9.142839 -46.409200 
lclavicle 0.000000 0.000000 
lhumerus -41.448204 41.022759 63.986579 
lradius 22.612712 
lwrist -67.200629 
lhand -20.944979 0.296552 
lfingers 0.000000 
lthumb 5.427482 30.207030 
rfemur -18.206228 -12.336435 16.046246 
rtibia 59.121008 
rfoot -11.920338 -13.895374 
rtoes -23.404092 
lfemur -17.079633 -1.312093 -26.832704 
ltibia 18.688735 
lfoot -9.599415 1.470529 
ltoes -33.466706 
168
root -6.260771 17.558072 -12.601824 9.029798 6.988095 3.733110
lowerback -12.057118 0.226448 -5.437005 
upperback 1.788123 1.277185 -1.775191 
thorax 8.634251 0.399214 1.416480 
lowerneck -6.449897 -2.396324 2.292344 
upperneck -0.402006 -3.323119 -2.404422 
head 0.876209 -1.698608 -1.218234 
rclavicle 0.000000 0.000000 
rhumerus -39.990395 -15.043595 -82.681307 
rradius 29.708541 
rwrist 28.948997 
rhand -16.916550 -16.708234 
rfingers 0.000000 
rthumb 9.315840 -46.482417 
lclavicle 0.000000 0.000000 
lhumerus -40.545023 40.240479 65.143169 
lradius 22.838101 
lwrist -66.354688 
lhand -20.960154 0.589127 
lfingers 0.000000 
lthumb 5.412818 30.499995 
rfemur -18.750026 -12.378023 16.125766 
rtibia 59.256445 
rfoot -12.327714 -13.920660 
rtoes -23.732328 
lfemur -16.909592 -1.305320 -26.838894 
ltibia 18.795619 
lfoot -9.661870 1.308088 
ltoes -33.126919 
169
root -6.244124 17.556115 -12.562039 9.001696 7.141584 3.705459
lowerback -11.951507 0.131596 -5.477386 
upperback 1.800382 1.145007 -1.721504 
thorax 8.593275 0.332744 1.470161 
lowerneck -6.453251 -2.376065 2.267487 
upperneck -0.430079 -3.294916 -2.395381 
head 0.869094 -1.684427 -1.210096 
rclavicle 0.000000 0.000000 
rhumerus -40.222421 -15.050595 -82.483982 
rradius 29.669170 
rwrist 28.517311 
rhand -16.889087 -16.761893 
rfingers 0.000000 
rthumb 9.342333 -46.534822 
lclavicle 0.000000 0.000000 
lhumerus -39.757235 39.857706 66.047475 
lradius 23.004867 
lwrist -65.682241 
lhand -20.809247 0.652575 
lfingers 0.000000 
lthumb 5.558513 30.559675 
rfemur -19.347308 -12.380816 16.218835 
rtibia 59.349646 
rfoot -12.677102 -13.872746 
rtoes -24.332419 
lfemur -16.811540 -1.341304 -26.855843 
ltibia 18.961325 
lfoot -9.706425 1.170184 
ltoes -32.688317 
170
root -6.228108 17.550164 -12.524689 8.970406 7.279604 3.637502
lowerback -11.842599 0.033151 -5.473730 
upperback 1.800441 0.999711 -1.657672 
thorax 8.538747 0.262309 1.507809 
lowerneck -6.359603 -2.323230 2.257041 
upperneck -0.508792 -3.222614 -2.436238 
head 0.829731 -1.648475 -1.216489 
rclavicle 0.000000 0.000000 
rhumerus -40.523714 -15.090310 -82.246845 
rradius 29.545390 
rwrist 28.416477 
rhand -17.022310 -16.584540 
rfingers 0.000000 
rthumb 9.213804 -46.363259 
lclavicle 0.000000 0.000000 
lhumerus -39.058307 39.617656 66.788696 
lradius 23.054608 
lwrist -65.338285 
lhand -20.922090 0.742935 
lfingers 0.000000 
lthumb 5.449581 30.652809 
rfemur -19.943498 -12.392243 16.334822 
rtibia 59.400576 
rfoot -13.022763 -13.696938 
rtoes -25.210996 
lfemur -16.743493 -1.458134 -26.823739 
ltibia 19.158224 
lfoot -9.803706 1.153823 
ltoes -32.036708 
171
root -6.211246 17.545886 -12.486899 8.927315 7.403037 3.593494
lowerback -11.701230 -0.056121 -5.486391 
upperback 1.786901 0.866444 -1.598264 
thorax 8.450105 0.198052 1.552270 
lowerneck -6.360339 -2.305194 2.203885 
upperneck -0.455804 -3.194906 -2.377693 
head 0.848635 -1.633723 -1.189067 
rclavicle 0.000000 0.000000 
rhumerus -40.818630 -15.319484 -81.860892 
rradius 29.309063 
rwrist 28.686089 
rhand -17.113998 -16.330297 
rfingers 0.000000 
rthumb 9.125292 -46.112864 
lclavicle 0.000000 0.000000 
lhumerus -38.353541 39.148325 67.656635 
lradius 23.228520 
lwrist -64.704189 
lhand -20.869533 0.770084 
lfingers 0.000000 
lthumb 5.500292 30.678707 
rfemur -20.521629 -12.341524 16.400538 
rtibia 59.396172 
rfoot -13.366618 -13.433263 
rtoes -25.164689 
lfemur -16.683742 -1.617079 -26.818779 
ltibia 19.407841 
lfoot -9.935267 1.165807 
ltoes -31.038026 
172
root -6.196226 17.539992 -12.449338 8.928491 7.578988 3.555969
lowerback -11.693967 -0.164455 -5.523542 
upperback 1.845932 0.725430 -1.546409 
thorax 8.518758 0.123960 1.601837 
lowerneck -6.490841 -2.285871 2.305540 
upperneck -0.401364 -3.176536 -2.491938 
head 0.886014 -1.627058 -1.245479 
rclavicle 0.000000 0.000000 
rhumerus -40.993543 -15.414724 -81.674342 
rradius 29.245415 
rwrist 28.900339 
rhand -17.179996 -16.454385 
rfingers 0.000000 
rthumb 9.061676 -46.239752 
lclavicle 0.000000 0.000000 
lhumerus -37.431068 38.735945 68.614589 
lradius 23.370315 
lwrist -64.022327 
lhand -20.789733 0.790872 
lfingers 0.000000 
lthumb 5.577396 30.697490 
rfemur -21.147500 -12.260226 16.495868 
rtibia 59.371747 
rfoot -13.724605 -13.120363 
rtoes -26.077549 
lfemur -16.684286 -1.840612 -26.803487 
ltibia 19.682581 
lfoot -10.106265 1.195517 
ltoes -30.370239 
